<svg xmlns="http://www.w3.org/2000/svg" width="256" height="256" viewBox="0 0 64 64">
<rect width="64" height="64" rx="6" ry="6" fill="#0e0e14"></rect>
<path d="M45.57 6.97H47.65M44.54 7.15H48.16M43.84 7.32H48.34M43.15 7.49H45.40M47.81 7.49H48.51M42.64 7.66H44.70M48.16 7.66H48.69M42.11 7.84H44.01M48.34 7.84H48.69M41.76 8.01H43.50M48.51 8.01H48.85M41.25 8.18H42.98M48.51 8.18H48.85M40.73 8.36H42.46M48.51 8.36H48.85M40.21 8.52H41.94M48.51 8.52H48.85M39.69 8.70H41.42M48.51 8.70H48.85M39.35 8.87H40.90M48.51 8.87H48.85M39.00 9.05H40.56M48.51 9.05H48.85M38.49 9.22H40.21M48.51 9.22H48.85M38.14 9.40H39.69M48.34 9.40H48.85M37.61 9.56H39.35M48.34 9.56H48.69M37.27 9.74H39.00M48.16 9.74H48.69M36.93 9.91H38.49M48.16 9.91H48.69M36.58 10.08H38.14M47.99 10.08H48.51M36.24 10.26H37.79M47.81 10.26H48.34M35.71 10.43H37.45M47.65 10.43H48.16M35.37 10.60H36.93M47.65 10.60H48.16M35.20 10.77H36.58M47.47 10.77H47.99M34.85 10.95H36.24M47.30 10.95H47.81M34.51 11.12H35.89M47.13 11.12H47.81M34.16 11.30H35.55M47.13 11.30H47.65M33.99 11.47H35.20M46.95 11.47H47.47M33.81 11.64H34.85M46.78 11.64H47.30M33.47 11.81H34.68M46.61 11.81H47.13M33.30 11.98H34.34M46.61 11.98H47.13M33.12 12.16H34.16M46.44 12.16H46.95M32.95 12.33H33.81M46.26 12.33H46.78M32.78 12.51H33.64M46.09 12.51H46.61M32.60 12.67H33.47M46.09 12.67H46.61M32.44 12.85H33.30M45.91 12.85H46.44M32.44 13.02H33.12M45.74 13.02H46.26M32.26 13.20H32.95M45.74 13.20H46.26M32.09 13.37H32.78M45.57 13.37H46.09M32.09 13.54H32.60M45.40 13.54H45.91M31.91 13.71H32.60M45.22 13.71H45.74M31.74 13.89H32.44M45.22 13.89H45.74M31.74 14.06H32.44M45.05 14.06H45.57M31.56 14.23H32.26M45.05 14.23H45.40M31.56 14.41H32.09M44.88 14.41H45.40M31.56 14.58H32.09M44.70 14.58H45.22M31.40 14.75H32.09M44.70 14.75H45.22M31.40 14.92H31.91M44.54 14.92H45.05M31.22 15.10H31.91M44.54 15.10H44.88M31.22 15.27H31.74M44.36 15.27H44.88M31.22 15.45H31.74M44.36 15.45H44.70M31.05 15.61H31.74M44.19 15.61H44.70M31.05 15.79H31.56M44.19 15.79H44.54M31.05 15.96H31.56M44.01 15.96H44.54M12.72 16.13H13.07M30.88 16.13H31.56M43.84 16.13H44.36M12.55 16.31H13.24M30.88 16.31H31.40M43.84 16.31H44.36M12.55 16.48H13.24M30.88 16.48H31.40M43.84 16.48H44.19M12.38 16.65H13.41M18.26 16.65H19.12M30.88 16.65H31.40M43.67 16.65H44.19M12.38 16.82H13.41M17.91 16.82H19.46M30.70 16.82H31.22M43.67 16.82H44.01M12.38 17.00H13.41M17.74 17.00H19.64M30.70 17.00H31.22M43.67 17.00H44.01M12.20 17.17H13.41M17.74 17.17H19.81M30.70 17.17H31.22M43.50 17.17H44.01M12.20 17.35H12.72M13.07 17.35H13.59M17.56 17.35H18.26M18.95 17.35H19.99M30.53 17.35H31.22M43.50 17.35H43.84M12.20 17.52H12.55M13.07 17.52H13.59M17.39 17.52H18.09M19.30 17.52H20.16M30.53 17.52H31.05M43.50 17.52H43.84M12.20 17.69H12.55M13.07 17.69H13.59M17.39 17.69H18.09M19.46 17.69H20.33M30.53 17.69H31.05M43.32 17.69H43.84M12.20 17.86H12.55M13.07 17.86H13.59M17.22 17.86H17.91M19.64 17.86H20.33M26.55 17.86H27.07M30.53 17.86H31.05M43.32 17.86H43.67M12.20 18.04H12.55M13.07 18.04H13.59M17.22 18.04H17.91M19.81 18.04H20.50M26.39 18.04H27.25M30.53 18.04H31.05M43.32 18.04H43.67M12.20 18.21H12.55M13.07 18.21H13.59M17.22 18.21H17.74M19.99 18.21H20.50M26.21 18.21H27.25M30.36 18.21H30.88M43.15 18.21H43.67M12.20 18.38H12.55M13.07 18.38H13.59M17.05 18.38H17.74M19.99 18.38H20.68M26.04 18.38H27.42M30.36 18.38H30.88M43.15 18.38H43.50M12.20 18.56H12.55M13.07 18.56H13.59M17.05 18.56H17.56M20.16 18.56H20.68M26.04 18.56H26.55M26.90 18.56H27.42M30.36 18.56H30.88M43.15 18.56H43.50M12.20 18.72H12.55M13.07 18.72H13.59M17.05 18.72H17.56M20.16 18.72H20.85M26.04 18.72H26.55M26.90 18.72H27.59M30.36 18.72H30.88M43.15 18.72H43.50M12.20 18.90H12.55M13.07 18.90H13.59M16.87 18.90H17.56M20.33 18.90H20.85M25.86 18.90H26.39M27.07 18.90H27.59M30.36 18.90H30.70M42.98 18.90H43.50M12.20 19.07H12.55M13.07 19.07H13.59M16.87 19.07H17.39M20.33 19.07H21.02M25.86 19.07H26.39M27.07 19.07H27.59M30.19 19.07H30.70M42.98 19.07H43.32M12.20 19.25H12.55M13.07 19.25H13.59M16.87 19.25H17.39M20.50 19.25H21.02M25.86 19.25H26.21M27.07 19.25H27.76M30.19 19.25H30.70M42.98 19.25H43.32M12.20 19.42H12.55M13.07 19.42H13.59M16.70 19.42H17.39M20.50 19.42H21.02M25.69 19.42H26.21M27.25 19.42H27.76M30.19 19.42H30.70M42.98 19.42H43.32M12.20 19.59H12.55M13.07 19.59H13.76M16.70 19.59H17.22M20.50 19.59H21.20M25.69 19.59H26.21M27.25 19.59H27.76M30.19 19.59H30.70M42.80 19.59H43.32M12.20 19.76H12.55M13.07 19.76H13.76M16.70 19.76H17.22M20.68 19.76H21.20M25.69 19.76H26.21M27.25 19.76H27.94M30.19 19.76H30.70M42.80 19.76H43.15M12.20 19.94H12.55M13.07 19.94H13.76M16.70 19.94H17.22M20.68 19.94H21.20M25.69 19.94H26.04M27.25 19.94H27.94M30.19 19.94H30.53M42.80 19.94H43.15M12.20 20.11H12.55M13.07 20.11H13.76M16.70 20.11H17.22M20.68 20.11H21.36M25.51 20.11H26.04M27.42 20.11H27.94M30.19 20.11H30.53M42.80 20.11H43.15M12.20 20.28H12.55M13.07 20.28H13.76M16.70 20.28H17.22M20.68 20.28H21.36M25.51 20.28H26.04M27.42 20.28H27.94M30.01 20.28H30.53M42.80 20.28H43.15M12.20 20.46H12.55M13.07 20.46H13.76M16.53 20.46H17.05M20.85 20.46H21.36M25.51 20.46H26.04M27.42 20.46H27.94M30.01 20.46H30.53M42.80 20.46H43.15M12.20 20.63H12.55M13.07 20.63H13.76M16.53 20.63H17.05M20.85 20.63H21.54M25.51 20.63H25.86M27.42 20.63H28.11M30.01 20.63H30.53M42.80 20.63H43.15M12.20 20.80H12.55M13.07 20.80H13.76M16.53 20.80H17.05M20.85 20.80H21.54M25.51 20.80H25.86M27.59 20.80H28.11M30.01 20.80H30.53M42.80 20.80H43.15M12.20 20.97H12.55M13.07 20.97H13.76M16.53 20.97H17.05M20.85 20.97H21.54M25.51 20.97H25.86M27.59 20.97H28.11M30.01 20.97H30.53M42.80 20.97H43.15M12.20 21.15H12.55M13.07 21.15H13.76M16.53 21.15H17.05M21.02 21.15H21.54M25.35 21.15H25.86M27.59 21.15H28.11M30.01 21.15H30.36M42.80 21.15H43.15M12.20 21.32H12.55M13.07 21.32H13.76M16.53 21.32H17.05M21.02 21.32H21.54M25.35 21.32H25.86M27.59 21.32H28.11M30.01 21.32H30.36M42.80 21.32H43.15M12.20 21.50H12.55M13.07 21.50H13.76M16.53 21.50H17.05M21.02 21.50H21.71M25.35 21.50H25.69M27.59 21.50H28.11M30.01 21.50H30.36M42.80 21.50H43.15M12.20 21.67H12.55M13.07 21.67H13.76M16.53 21.67H16.87M21.02 21.67H21.71M25.35 21.67H25.69M27.59 21.67H28.29M29.84 21.67H30.36M42.80 21.67H43.15M12.20 21.84H12.55M13.07 21.84H13.76M16.53 21.84H16.87M21.20 21.84H21.71M25.35 21.84H25.69M27.76 21.84H28.29M29.84 21.84H30.36M42.80 21.84H43.15M12.20 22.01H12.55M13.07 22.01H13.76M16.35 22.01H16.87M21.20 22.01H21.71M25.35 22.01H25.69M27.76 22.01H28.29M29.84 22.01H30.36M42.80 22.01H43.32M12.20 22.18H12.55M13.07 22.18H13.76M16.35 22.18H16.87M21.20 22.18H21.71M25.35 22.18H25.69M27.76 22.18H28.29M29.84 22.18H30.36M42.98 22.18H43.32M12.20 22.36H12.55M13.07 22.36H13.76M16.35 22.36H16.87M21.20 22.36H21.71M25.17 22.36H25.69M27.76 22.36H28.29M29.84 22.36H30.36M42.98 22.36H43.32M12.20 22.53H12.55M13.07 22.53H13.76M16.35 22.53H16.87M21.20 22.53H21.89M25.17 22.53H25.69M27.76 22.53H28.29M29.84 22.53H30.36M42.98 22.53H43.50M12.38 22.71H12.55M13.07 22.71H13.76M16.35 22.71H16.87M21.20 22.71H21.89M25.17 22.71H25.51M27.76 22.71H28.29M29.84 22.71H30.19M43.15 22.71H43.50M12.38 22.87H12.38M13.07 22.87H13.76M16.35 22.87H16.87M21.36 22.87H21.89M25.17 22.87H25.51M27.76 22.87H28.45M29.84 22.87H30.19M43.15 22.87H43.50M13.07 23.05H13.76M16.35 23.05H16.87M21.36 23.05H21.89M25.17 23.05H25.51M27.76 23.05H28.45M29.66 23.05H30.19M43.32 23.05H43.67M13.07 23.22H13.76M16.35 23.22H16.87M21.36 23.22H21.89M25.17 23.22H25.51M27.94 23.22H28.45M29.66 23.22H30.19M43.32 23.22H43.84M13.07 23.40H13.76M16.35 23.40H16.87M21.36 23.40H21.89M25.17 23.40H25.51M27.94 23.40H28.45M29.66 23.40H30.19M43.50 23.40H43.84M13.07 23.57H13.76M16.35 23.57H16.70M21.36 23.57H21.89M25.17 23.57H25.51M27.94 23.57H28.45M29.66 23.57H30.19M43.50 23.57H44.01M13.07 23.74H13.76M16.35 23.74H16.70M21.36 23.74H21.89M25.17 23.74H25.51M27.94 23.74H28.45M29.66 23.74H30.19M43.67 23.74H44.01M13.07 23.91H13.76M16.19 23.91H16.70M21.36 23.91H21.89M25.17 23.91H25.51M27.94 23.91H28.45M29.66 23.91H30.19M43.67 23.91H44.19M13.07 24.09H13.76M16.19 24.09H16.70M21.36 24.09H21.89M25.00 24.09H25.51M27.94 24.09H28.45M29.66 24.09H30.19M43.84 24.09H44.36M13.07 24.26H13.76M16.19 24.26H16.70M21.36 24.26H22.06M25.00 24.26H25.51M27.94 24.26H28.45M29.66 24.26H30.01M44.01 24.26H44.36M13.07 24.43H13.76M16.19 24.43H16.70M21.36 24.43H22.06M25.00 24.43H25.35M27.94 24.43H28.63M29.66 24.43H30.01M44.01 24.43H44.54M13.07 24.61H13.76M16.19 24.61H16.70M21.54 24.61H22.06M25.00 24.61H25.35M27.94 24.61H28.63M29.49 24.61H30.01M44.19 24.61H44.70M13.07 24.77H13.76M16.19 24.77H16.70M21.54 24.77H22.06M25.00 24.77H25.35M27.94 24.77H28.63M29.49 24.77H30.01M44.36 24.77H44.88M13.07 24.95H13.76M16.19 24.95H16.70M21.54 24.95H22.06M25.00 24.95H25.35M27.94 24.95H28.63M29.49 24.95H30.01M44.54 24.95H45.05M13.07 25.12H13.76M16.19 25.12H16.70M21.54 25.12H22.06M25.00 25.12H25.35M28.11 25.12H28.63M29.49 25.12H30.01M44.70 25.12H45.05M13.07 25.30H13.76M16.19 25.30H16.70M21.54 25.30H22.06M25.00 25.30H25.35M28.11 25.30H28.63M29.49 25.30H30.01M44.70 25.30H45.22M13.07 25.47H13.76M16.19 25.47H16.70M21.54 25.47H22.06M25.00 25.47H25.35M28.11 25.47H28.63M29.49 25.47H30.01M44.88 25.47H45.40M13.07 25.65H13.76M16.19 25.65H16.53M21.54 25.65H22.06M25.00 25.65H25.35M28.11 25.65H28.63M29.49 25.65H30.01M45.05 25.65H45.57M13.07 25.81H13.76M16.01 25.81H16.53M21.54 25.81H22.06M25.00 25.81H25.35M28.11 25.81H28.63M29.49 25.81H29.84M45.22 25.81H45.74M13.07 25.99H13.76M16.01 25.99H16.53M21.54 25.99H22.06M25.00 25.99H25.35M28.11 25.99H28.63M29.49 25.99H29.84M45.40 25.99H45.91M13.07 26.16H13.76M16.01 26.16H16.53M21.54 26.16H22.06M24.83 26.16H25.35M28.11 26.16H28.80M29.49 26.16H29.84M45.57 26.16H46.09M13.07 26.33H13.59M16.01 26.33H16.53M21.54 26.33H22.06M24.83 26.33H25.35M28.11 26.33H28.80M29.32 26.33H29.84M45.74 26.33H46.26M13.07 26.51H13.59M16.01 26.51H16.53M21.54 26.51H22.06M24.83 26.51H25.17M28.11 26.51H28.80M29.32 26.51H29.84M45.91 26.51H46.44M13.07 26.68H13.59M16.01 26.68H16.53M21.54 26.68H22.24M24.83 26.68H25.17M28.11 26.68H28.80M29.32 26.68H29.84M46.09 26.68H46.61M13.07 26.85H13.59M16.01 26.85H16.53M21.54 26.85H22.24M24.83 26.85H25.17M28.11 26.85H28.80M29.32 26.85H29.84M46.26 26.85H46.78M13.07 27.02H13.59M16.01 27.02H16.53M21.54 27.02H22.24M24.83 27.02H25.17M28.29 27.02H28.80M29.32 27.02H29.84M46.44 27.02H46.95M13.07 27.20H13.59M16.01 27.20H16.53M21.54 27.20H22.24M24.83 27.20H25.17M28.29 27.20H28.80M29.32 27.20H29.84M46.61 27.20H47.30M13.07 27.37H13.59M16.01 27.37H16.53M21.54 27.37H22.24M24.83 27.37H25.17M28.29 27.37H28.80M29.32 27.37H29.84M46.78 27.37H47.47M13.07 27.55H13.59M16.01 27.55H16.35M21.54 27.55H22.24M24.83 27.55H25.17M28.29 27.55H28.80M29.32 27.55H29.66M47.13 27.55H47.65M13.07 27.72H13.59M15.84 27.72H16.35M21.71 27.72H22.24M24.83 27.72H25.17M28.29 27.72H28.80M29.32 27.72H29.66M47.30 27.72H47.81M13.07 27.89H13.59M15.84 27.89H16.35M21.71 27.89H22.24M24.83 27.89H25.17M28.29 27.89H28.80M29.15 27.89H29.66M47.47 27.89H47.99M13.07 28.06H13.59M15.84 28.06H16.35M21.71 28.06H22.24M24.65 28.06H25.17M28.29 28.06H29.66M47.65 28.06H48.34M13.07 28.23H13.59M15.84 28.23H16.35M21.71 28.23H22.24M24.65 28.23H25.17M28.29 28.23H29.66M47.81 28.23H48.51M13.07 28.41H13.59M15.84 28.41H16.35M21.71 28.41H22.24M24.65 28.41H25.00M28.29 28.41H29.66M47.99 28.41H48.69M13.07 28.58H13.59M15.84 28.58H16.35M21.71 28.58H22.24M24.65 28.58H25.00M28.29 28.58H29.66M48.34 28.58H48.85M13.07 28.76H13.59M15.84 28.76H16.35M21.71 28.76H22.24M24.65 28.76H25.00M28.29 28.76H29.66M48.51 28.76H49.03M13.07 28.92H13.59M15.84 28.92H16.35M21.71 28.92H22.24M24.65 28.92H25.00M28.29 28.92H29.66M48.69 28.92H49.20M13.07 29.10H13.59M15.84 29.10H16.35M21.71 29.10H22.24M24.65 29.10H25.00M28.45 29.10H29.66M48.85 29.10H49.37M13.07 29.27H13.59M15.84 29.27H16.19M21.71 29.27H22.24M24.65 29.27H25.00M28.45 29.27H29.49M49.03 29.27H49.55M13.07 29.45H13.59M15.84 29.45H16.19M21.71 29.45H22.24M24.65 29.45H25.00M28.45 29.45H29.49M49.20 29.45H49.72M12.90 29.62H13.59M15.66 29.62H16.19M21.71 29.62H22.24M24.48 29.62H25.00M28.45 29.62H29.49M49.37 29.62H49.89M12.90 29.79H13.59M15.66 29.79H16.19M21.71 29.79H22.24M24.48 29.79H25.00M28.45 29.79H29.49M49.55 29.79H50.06M12.90 29.96H13.59M15.66 29.96H16.19M21.71 29.96H22.24M24.48 29.96H24.83M28.45 29.96H29.49M49.72 29.96H50.24M12.90 30.14H13.59M15.66 30.14H16.19M21.71 30.14H22.24M24.48 30.14H24.83M28.45 30.14H29.49M49.89 30.14H50.41M12.90 30.31H13.59M15.66 30.31H16.19M21.71 30.31H22.24M24.48 30.31H24.83M28.45 30.31H29.49M50.06 30.31H50.59M12.90 30.48H13.59M15.66 30.48H16.19M21.71 30.48H22.24M24.48 30.48H24.83M28.45 30.48H29.49M50.24 30.48H50.76M12.90 30.66H13.59M15.66 30.66H16.19M21.71 30.66H22.24M24.31 30.66H24.83M28.45 30.66H29.49M50.41 30.66H50.93M12.90 30.83H13.59M15.66 30.83H16.01M21.71 30.83H22.24M24.31 30.83H24.83M28.45 30.83H29.32M50.59 30.83H51.10M12.90 31.00H13.59M15.66 31.00H16.01M21.71 31.00H22.24M24.31 31.00H24.65M28.63 31.00H29.32M50.76 31.00H51.10M12.90 31.17H13.59M15.49 31.17H16.01M21.71 31.17H22.24M24.31 31.17H24.65M28.63 31.17H29.32M50.76 31.17H51.28M12.90 31.35H13.59M15.49 31.35H16.01M21.71 31.35H22.24M24.31 31.35H24.65M28.63 31.35H29.32M50.93 31.35H51.28M12.90 31.52H13.59M15.49 31.52H16.01M21.71 31.52H22.24M24.31 31.52H24.65M28.63 31.52H29.32M51.10 31.52H51.45M12.90 31.70H13.59M15.49 31.70H16.01M21.71 31.70H22.24M24.31 31.70H24.65M28.63 31.70H29.32M51.10 31.70H51.45M12.90 31.86H13.59M15.49 31.86H16.01M21.71 31.86H22.24M24.14 31.86H24.65M28.63 31.86H29.32M51.28 31.86H51.62M12.90 32.04H13.41M15.49 32.04H15.84M21.71 32.04H22.24M24.14 32.04H24.65M28.63 32.04H29.32M51.28 32.04H51.62M12.90 32.21H13.41M15.49 32.21H15.84M21.71 32.21H22.24M24.14 32.21H24.48M28.63 32.21H29.32M51.28 32.21H51.80M12.90 32.38H13.41M15.49 32.38H15.84M21.71 32.38H22.24M24.14 32.38H24.48M28.63 32.38H29.32M51.45 32.38H51.80M12.90 32.56H13.41M15.31 32.56H15.84M21.71 32.56H22.24M24.14 32.56H24.48M28.63 32.56H29.15M51.45 32.56H51.80M12.90 32.73H13.41M15.31 32.73H15.84M21.71 32.73H22.24M24.14 32.73H24.48M28.63 32.73H29.15M51.45 32.73H51.96M12.90 32.90H13.41M15.31 32.90H15.84M21.71 32.90H22.24M23.96 32.90H24.48M28.63 32.90H29.15M51.45 32.90H51.96M12.90 33.07H13.41M15.31 33.07H15.84M21.71 33.07H22.24M23.96 33.07H24.31M28.63 33.07H29.15M51.62 33.07H51.96M12.90 33.25H13.41M15.31 33.25H15.66M21.71 33.25H22.24M23.96 33.25H24.31M28.63 33.25H29.15M51.62 33.25H51.96M12.90 33.42H13.41M15.31 33.42H15.66M21.71 33.42H22.24M23.96 33.42H24.31M28.63 33.42H29.15M51.62 33.42H51.96M12.90 33.60H13.41M15.31 33.60H15.66M21.71 33.60H22.24M23.96 33.60H24.31M28.63 33.60H29.15M51.62 33.60H52.14M12.90 33.77H13.41M15.15 33.77H15.66M21.71 33.77H22.24M23.79 33.77H24.31M28.63 33.77H29.32M51.62 33.77H52.14M12.90 33.94H13.41M15.15 33.94H15.66M21.71 33.94H22.24M23.79 33.94H24.31M28.63 33.94H29.32M51.62 33.94H52.14M12.90 34.11H13.41M15.15 34.11H15.66M21.71 34.11H22.24M23.79 34.11H24.14M28.63 34.11H29.32M51.62 34.11H52.14M12.90 34.29H13.41M15.15 34.29H15.66M21.71 34.29H22.24M23.79 34.29H24.14M28.63 34.29H29.32M51.62 34.29H52.14M12.90 34.46H13.41M15.15 34.46H15.49M21.71 34.46H22.24M23.79 34.46H24.14M28.63 34.46H29.32M51.62 34.46H52.14M12.90 34.63H13.41M14.97 34.63H15.49M21.71 34.63H22.24M23.61 34.63H24.14M28.45 34.63H29.32M51.62 34.63H52.14M12.90 34.81H13.41M14.97 34.81H15.49M21.71 34.81H22.24M23.61 34.81H24.14M28.45 34.81H29.32M51.62 34.81H52.14M12.90 34.97H13.41M14.97 34.97H15.49M21.71 34.97H22.24M23.61 34.97H24.14M28.45 34.97H29.32M51.62 34.97H52.14M12.90 35.15H13.41M14.97 35.15H15.49M21.71 35.15H22.24M23.61 35.15H23.96M28.45 35.15H29.32M51.62 35.15H52.14M12.90 35.32H13.41M14.97 35.32H15.49M21.71 35.32H22.24M23.61 35.32H23.96M28.45 35.32H29.32M51.62 35.32H52.14M12.72 35.50H13.41M14.97 35.50H15.31M21.71 35.50H22.24M23.44 35.50H23.96M28.45 35.50H29.32M51.62 35.50H52.14M12.72 35.67H13.41M14.80 35.67H15.31M21.71 35.67H22.24M23.44 35.67H23.96M28.45 35.67H29.32M51.62 35.67H52.14M12.72 35.84H13.41M14.80 35.84H15.31M21.54 35.84H22.06M23.44 35.84H23.79M28.45 35.84H29.32M51.45 35.84H52.14M12.72 36.01H13.41M14.80 36.01H15.31M21.54 36.01H22.06M23.44 36.01H23.79M28.45 36.01H29.32M51.45 36.01H51.96M12.72 36.19H13.41M14.80 36.19H15.31M21.54 36.19H22.06M23.27 36.19H23.79M28.29 36.19H29.32M51.28 36.19H51.96M12.72 36.36H13.41M14.80 36.36H15.15M21.54 36.36H22.06M23.27 36.36H23.79M28.29 36.36H29.32M51.28 36.36H51.96M12.72 36.53H13.41M14.63 36.53H15.15M21.54 36.53H22.06M23.27 36.53H23.61M28.29 36.53H29.32M51.10 36.53H51.80M12.72 36.71H13.41M14.63 36.71H15.15M21.54 36.71H22.06M23.27 36.71H23.61M28.29 36.71H29.32M50.93 36.71H51.80M12.72 36.88H13.41M14.63 36.88H15.15M21.54 36.88H22.06M23.10 36.88H23.61M28.29 36.88H29.32M50.93 36.88H51.62M12.72 37.05H13.41M14.63 37.05H15.15M21.54 37.05H22.06M23.10 37.05H23.61M28.29 37.05H29.32M50.76 37.05H51.45M12.72 37.22H13.41M14.45 37.22H14.97M21.54 37.22H22.06M23.10 37.22H23.44M28.29 37.22H29.32M50.59 37.22H51.45M12.72 37.40H13.24M14.45 37.40H14.97M21.54 37.40H22.06M22.92 37.40H23.44M28.29 37.40H29.32M50.41 37.40H51.28M12.72 37.57H13.24M14.45 37.57H14.97M21.54 37.57H22.06M22.92 37.57H23.44M28.29 37.57H29.32M50.24 37.57H51.10M12.72 37.75H13.24M14.45 37.75H14.97M21.54 37.75H22.06M22.92 37.75H23.44M28.29 37.75H29.32M50.06 37.75H50.93M12.72 37.92H13.24M14.45 37.92H14.80M21.54 37.92H22.06M22.92 37.92H23.27M28.11 37.92H29.32M49.89 37.92H50.76M12.72 38.09H13.24M14.28 38.09H14.80M21.54 38.09H21.89M22.92 38.09H23.27M28.11 38.09H29.32M49.72 38.09H50.59M12.72 38.26H13.24M14.28 38.26H14.80M21.36 38.26H21.89M22.75 38.26H23.27M28.11 38.26H29.32M49.55 38.26H50.59M12.72 38.43H13.24M14.28 38.43H14.80M21.36 38.43H21.89M22.75 38.43H23.27M28.11 38.43H29.32M49.37 38.43H50.41M12.72 38.61H13.24M14.28 38.61H14.80M21.36 38.61H21.89M22.75 38.61H23.10M28.11 38.61H29.32M49.20 38.61H50.24M12.72 38.78H13.24M14.28 38.78H14.63M21.36 38.78H21.89M22.58 38.78H23.10M28.11 38.78H29.32M49.03 38.78H50.06M12.72 38.96H13.24M14.11 38.96H14.63M21.36 38.96H21.89M22.58 38.96H23.10M28.11 38.96H29.32M48.85 38.96H49.89M12.72 39.12H13.24M14.11 39.12H14.63M21.36 39.12H21.89M22.58 39.12H23.10M28.11 39.12H29.32M48.69 39.12H49.72M12.72 39.30H13.24M14.11 39.30H14.63M21.36 39.30H21.89M22.58 39.30H22.92M28.11 39.30H29.32M48.51 39.30H49.55M12.72 39.47H13.24M14.11 39.47H14.63M21.36 39.47H21.89M22.40 39.47H22.92M28.11 39.47H29.32M48.34 39.47H49.20M12.55 39.65H13.24M14.11 39.65H14.45M21.20 39.65H21.71M22.40 39.65H22.92M28.11 39.65H29.32M48.16 39.65H49.03M12.55 39.82H13.24M13.94 39.82H14.45M21.20 39.82H21.71M22.40 39.82H22.75M27.94 39.82H29.32M47.81 39.82H48.85M12.55 39.99H13.24M13.94 39.99H14.45M21.20 39.99H21.71M22.24 39.99H22.75M27.94 39.99H29.32M47.65 39.99H48.69M12.55 40.16H13.24M13.94 40.16H14.45M21.20 40.16H21.71M22.24 40.16H22.75M27.94 40.16H29.32M47.47 40.16H48.51M12.55 40.34H13.24M13.94 40.34H14.45M21.20 40.34H21.71M22.24 40.34H22.58M27.94 40.34H29.15M47.30 40.34H48.34M12.55 40.51H13.24M13.94 40.51H14.28M21.20 40.51H21.71M22.06 40.51H22.58M27.94 40.51H29.15M47.13 40.51H48.16M12.55 40.68H13.24M13.76 40.68H14.28M21.20 40.68H21.71M22.06 40.68H22.58M27.94 40.68H29.15M46.95 40.68H47.99M12.55 40.86H13.24M13.76 40.86H14.28M21.20 40.86H22.58M27.94 40.86H29.15M46.78 40.86H47.81M12.55 41.02H13.24M13.76 41.02H14.28M21.20 41.02H22.40M27.94 41.02H29.15M46.61 41.02H47.65M12.55 41.20H13.24M13.76 41.20H14.28M21.02 41.20H21.54M21.89 41.20H22.40M27.94 41.20H29.15M46.44 41.20H47.47M12.55 41.37H13.07M13.59 41.37H14.11M21.02 41.37H21.54M21.89 41.37H22.40M27.94 41.37H29.15M46.09 41.37H47.30M12.55 41.55H13.07M13.59 41.55H14.11M21.02 41.55H22.24M27.94 41.55H29.15M45.91 41.55H47.13M12.55 41.72H13.07M13.59 41.72H14.11M21.02 41.72H22.24M27.94 41.72H29.15M45.74 41.72H46.78M12.55 41.90H13.07M13.41 41.90H14.11M21.02 41.90H22.24M27.94 41.90H28.97M45.57 41.90H46.61M12.55 42.06H13.07M13.41 42.06H14.11M21.02 42.06H22.06M27.94 42.06H28.97M45.22 42.06H46.44M12.55 42.24H13.07M13.41 42.24H13.94M21.02 42.24H22.06M27.94 42.24H28.97M45.05 42.24H46.26M12.55 42.41H13.07M13.41 42.41H13.94M20.85 42.41H22.06M27.94 42.41H28.97M44.88 42.41H46.09M12.38 42.58H13.07M13.41 42.58H13.94M20.85 42.58H21.89M27.94 42.58H28.97M44.70 42.58H45.74M12.38 42.76H13.94M20.85 42.76H21.89M27.94 42.76H28.97M44.36 42.76H45.57M12.38 42.93H13.76M20.85 42.93H21.89M27.94 42.93H28.80M44.19 42.93H45.40M12.38 43.10H13.76M20.85 43.10H21.71M27.94 43.10H28.80M44.01 43.10H45.22M12.38 43.27H13.76M20.85 43.27H21.71M27.94 43.27H28.80M43.67 43.27H44.88M12.38 43.45H13.76M20.85 43.45H21.71M27.94 43.45H28.80M43.50 43.45H44.70M12.38 43.62H13.76M20.85 43.62H21.54M27.94 43.62H28.63M43.32 43.62H44.54M12.38 43.80H13.59M20.85 43.80H21.54M27.94 43.80H28.63M42.98 43.80H44.19M12.38 43.97H13.59M20.68 43.97H21.54M28.11 43.97H28.45M42.80 43.97H44.01M12.38 44.14H13.59M20.68 44.14H21.36M28.11 44.14H28.45M42.46 44.14H43.84M12.38 44.31H13.59M20.68 44.31H21.36M42.29 44.31H43.50M12.38 44.48H13.59M20.68 44.48H21.36M41.94 44.48H43.32M12.38 44.66H13.41M20.68 44.66H21.20M41.76 44.66H42.98M12.20 44.83H13.41M20.68 44.83H21.20M41.42 44.83H42.80M12.20 45.01H13.41M20.68 45.01H21.20M41.25 45.01H42.46M12.20 45.17H13.41M20.68 45.17H21.02M40.90 45.17H42.29M12.20 45.35H13.41M20.85 45.35H21.02M40.73 45.35H42.11M12.20 45.52H13.24M40.39 45.52H41.76M12.20 45.70H13.24M40.21 45.70H41.42M12.20 45.87H13.24M39.86 45.87H41.25M12.20 46.04H13.24M39.69 46.04H40.90M12.20 46.21H13.24M39.35 46.21H40.73M12.20 46.39H13.07M39.17 46.39H40.39M12.04 46.56H13.07M38.83 46.56H40.21M12.04 46.73H13.07M38.49 46.73H39.86M12.04 46.91H13.07M38.31 46.91H39.69M12.04 47.08H13.07M38.14 47.08H39.35M12.04 47.25H13.07M37.79 47.25H39.17M12.04 47.42H12.90M37.45 47.42H38.83M12.04 47.60H12.90M37.27 47.60H38.65M12.04 47.77H12.90M36.93 47.77H38.31M12.04 47.95H12.90M36.75 47.95H37.96M12.04 48.11H12.90M36.41 48.11H37.79M11.86 48.29H12.72M36.24 48.29H37.45M11.86 48.46H12.72M35.89 48.46H37.27M11.86 48.63H12.72M35.71 48.63H36.93M11.86 48.81H12.72M35.37 48.81H36.75M11.86 48.98H12.55M35.20 48.98H36.41M11.86 49.15H12.55M34.85 49.15H36.24M11.86 49.32H12.55M34.68 49.32H35.89M11.86 49.50H12.55M34.34 49.50H35.55M11.86 49.67H12.55M33.99 49.67H35.37M11.69 49.85H12.38M33.81 49.85H35.03M11.69 50.02H12.38M33.47 50.02H34.85M11.69 50.19H12.38M33.12 50.19H34.51M11.69 50.36H12.38M32.95 50.36H34.16M11.69 50.54H12.38M32.60 50.54H33.81M11.69 50.71H12.20M32.26 50.71H33.64M11.69 50.88H12.20M32.09 50.88H33.30M11.69 51.06H12.20M31.74 51.06H32.95M11.69 51.22H12.20M31.56 51.22H32.78M11.69 51.40H12.20M31.22 51.40H32.44M11.69 51.57H12.04M30.88 51.57H32.09M30.70 51.75H31.74M30.36 51.92H31.56M30.01 52.09H31.22M29.84 52.26H30.88M29.49 52.44H30.70M29.15 52.61H30.36M28.97 52.78H30.01M28.63 52.96H29.66M28.45 53.13H29.49M28.11 53.30H29.15M27.76 53.47H28.80M27.59 53.65H28.63M27.25 53.82H28.29M26.90 54.00H27.94M26.73 54.17H27.76M26.39 54.34H27.42M26.04 54.51H27.07M25.69 54.68H26.73M25.35 54.86H26.39M25.00 55.03H26.04M24.65 55.21H25.69M24.31 55.37H25.35M23.96 55.55H25.00M23.44 55.72H24.65M22.92 55.90H24.14M22.40 56.07H23.79M21.71 56.24H23.27M20.33 56.41H22.75M20.16 56.59H22.06M20.16 56.76H21.02" stroke="#FF6B00" stroke-width="0.65" stroke-linecap="round" fill="none"></path>
</svg>